<svg xmlns="http://www.w3.org/2000/svg" xmlns:xlink="http://www.w3.org/1999/xlink" width="1949" height="1722" viewBox="0 0 1949 1722">
  <defs>
    <style>
      .cls-1 {
        fill-rule: evenodd;
        fill: url(#linear-gradient);
      }
    </style>
    <linearGradient id="linear-gradient" x1="974.487" y1="1721.06" x2="974.487" y2="0.656" gradientUnits="userSpaceOnUse">
      <stop offset="0" stop-color="#00ff89"/>
      <stop offset="1" stop-color="#00faff"/>
    </linearGradient>
  </defs>
  <path class="cls-1" d="M77,765C27.761,786.76-1.611,827.409,1,861c1.823,23.45,17.719,43.064,34,56,62.053,49.3,150.587-2.063,182,35,50.686,59.8-134.157,248.75-80,392,28.857,76.33,103.972,112.81,138,125,89.571,32.09,175.121-9.28,303-19,92.91-7.06,146.38,3.12,166,36,25.385,42.55-23.255,101.14,3,138,27.136,38.1,109.89,19.02,160,12,209.21-29.3,266.79,106.86,441,82,435.82-62.2,747.47-1010.093,528-1197-61.12-52.051-171.03-19.212-215-89-49.51-78.583,50.83-176.711,19-267C1614.1-21.942,1118.23-52.828,740,90,497.407,181.61,392.089,288.92,373,387c-14.876,76.433,39.128,153.45,0,222C327.7,688.358,174.681,721.831,77,765Zm577,748c-9.108-15.38-73.523-10.11-82,21-4.453,16.34,6.808,38.77,22,43C622.361,1584.89,663.548,1529.12,654,1513Z"/>
</svg>
