<svg xmlns="http://www.w3.org/2000/svg" width="119" height="18" viewBox="0 0 119 18"><g><g><path fill="#fdd548" d="M9.47 14.925L3.616 18l1.118-6.513L0 6.875l6.543-.95L9.47 0l2.926 5.925 6.543.95-4.734 4.612L15.32 18zm25.014 0L28.632 18l1.118-6.513-4.734-4.612 6.542-.95L34.484 0l2.927 5.925 6.542.95-4.734 4.612L40.337 18zm25.016 0L53.648 18l1.117-6.513-4.734-4.612 6.543-.95L59.5 0l2.926 5.925 6.543.95-4.735 4.612L65.352 18zm25.015 0L78.663 18l1.117-6.513-4.734-4.612 6.543-.95L84.515 0l2.926 5.925 6.543.95-4.735 4.612L90.367 18zm25.015 0L103.678 18l1.118-6.513-4.735-4.612 6.543-.95L109.53 0l2.926 5.925 6.543.95-4.734 4.612L115.382 18z"/></g></g></svg>